<svg xmlns="http://www.w3.org/2000/svg" version="1.0" width="55" height="70" viewBox="0 0 1280.000000 1034.000000" preserveAspectRatio="xMidYMid meet">
<metadata>
Created by potrace 1.15, written by Peter Selinger 2001-2017
</metadata>
<g transform="translate(0.000000,1034.000000) scale(0.100000,-0.100000)" fill="#000000" stroke="none">
<path d="M4193 10236 c-258 -50 -480 -212 -592 -434 l-22 -43 -43 58 c-95 130 -232 238 -374 297 -121 51 -180 61 -347 61 -128 -1 -161 -4 -225 -24 -246 -76 -439 -239 -552 -466 -20 -38 -41 -87 -48 -108 -9 -30 -16 -37 -29 -31 -264 118 -584 92 -823 -65 -101 -67 -158 -119 -227 -211 -114 -152 -178 -324 -188 -511 l-6 -106 -56 -18 c-131 -40 -291 -143 -393 -253 -328 -355 -356 -911 -64 -1290 55 -72 167 -178 229 -217 33 -21 45 -35 41 -45 -48 -111 -68 -389 -40 -549 69 -395 341 -721 709 -851 28 -10 52 -22 52 -27 0 -4 -7 -48 -14 -97 -20 -132 -10 -335 22 -459 29 -111 94 -254 157 -348 60 -88 189 -219 277 -280 156 -108 351 -175 536 -186 94 -6 98 -7 93 -27 -31 -125 -36 -359 -11 -501 73 -410 349 -762 723 -920 296 -124 644 -119 930 15 l84 40 -7 -38 c-39 -204 -32 -434 19 -624 112 -415 421 -757 811 -896 137 -49 217 -64 373 -69 206 -8 352 17 524 88 39 16 72 29 74 29 2 0 4 -8 4 -19 0 -33 50 -193 86 -276 77 -176 180 -321 327 -461 190 -182 401 -293 667 -350 118 -26 391 -26 508 0 356 77 649 272 857 571 65 93 143 248 180 360 29 86 65 244 65 286 0 24 5 26 92 43 221 42 389 130 554 288 177 170 291 395 330 648 25 170 12 333 -40 507 l-27 88 78 80 c157 161 251 352 284 574 13 90 7 282 -10 339 -9 30 -8 34 17 45 92 40 232 158 305 256 98 133 163 315 174 486 l6 102 88 6 c162 10 311 77 441 196 105 97 176 210 218 348 l21 71 127 0 c108 0 141 4 217 27 236 69 417 230 517 460 50 115 62 179 63 336 l0 147 78 6 c102 9 238 53 330 107 86 50 227 190 276 272 38 64 77 158 98 232 20 73 28 257 14 343 -24 152 -99 313 -199 422 l-53 59 59 59 c108 108 192 254 233 407 18 65 22 107 22 230 0 135 -2 159 -27 240 -110 360 -382 595 -736 634 -92 10 -222 0 -301 -23 l-46 -14 -6 77 c-7 88 -25 163 -60 250 -81 200 -256 373 -454 449 -264 102 -568 50 -781 -133 -157 -135 -239 -284 -288 -523 -4 -22 -10 -19 -66 42 -374 409 -1021 323 -1280 -169 -41 -78 -82 -210 -92 -297 l-7 -56 -72 38 c-113 60 -187 81 -312 87 -169 8 -216 -5 -455 -124 -3 -2 -5 45 -6 105 -1 130 -21 215 -79 337 -72 154 -178 274 -315 356 -264 157 -606 142 -853 -38 -26 -20 -49 -34 -51 -32 -1 2 -13 29 -25 59 -67 159 -209 311 -371 398 -267 143 -599 123 -844 -52 -61 -44 -206 -189 -206 -207 0 -22 -19 -5 -50 44 -75 116 -214 237 -341 297 -141 65 -336 93 -476 66z m-498 -1397 c100 -128 272 -237 439 -279 99 -25 266 -27 369 -4 180 40 377 170 484 319 12 16 23 28 26 25 2 -3 22 -32 45 -66 110 -165 293 -291 492 -340 98 -24 268 -24 365 0 89 22 257 103 312 151 l42 36 32 -63 c83 -165 206 -290 364 -368 124 -61 210 -82 340 -83 160 -1 316 44 429 123 31 22 58 40 60 40 2 0 4 -37 5 -83 3 -272 168 -534 413 -658 186 -94 426 -96 621 -5 221 103 389 330 422 572 l6 51 66 -43 c236 -155 548 -165 798 -25 212 119 364 334 406 575 l11 65 49 -59 c123 -148 316 -249 514 -269 77 -7 199 -1 258 14 l27 7 0 -55 c0 -76 26 -215 55 -299 45 -127 121 -246 222 -342 l47 -46 -35 -37 c-92 -98 -161 -221 -201 -358 -19 -67 -23 -103 -23 -228 l0 -147 -43 0 c-65 0 -189 -28 -269 -61 -227 -95 -413 -316 -471 -564 l-18 -75 -99 -4 c-168 -8 -314 -62 -441 -164 -152 -123 -260 -321 -281 -515 l-6 -57 -91 6 c-419 29 -798 -273 -886 -706 -11 -54 -20 -132 -20 -173 0 -73 -1 -75 -27 -82 -49 -12 -172 -73 -241 -119 -136 -91 -281 -263 -347 -411 -86 -196 -113 -442 -69 -646 5 -24 -1 -32 -56 -69 -147 -100 -283 -258 -367 -426 -34 -70 -51 -93 -62 -89 -9 2 -65 9 -126 14 -238 21 -492 -27 -696 -129 -43 -22 -60 -27 -63 -18 -85 286 -200 475 -406 662 -228 206 -517 317 -830 317 -204 0 -383 -42 -560 -131 l-81 -41 8 68 c14 117 8 331 -11 422 -52 254 -160 456 -340 637 -200 201 -423 310 -706 345 -52 6 -132 9 -177 6 l-81 -6 5 128 c22 493 -275 946 -717 1097 -30 10 -56 19 -58 20 -2 1 4 42 12 90 83 472 -159 968 -572 1173 l-73 36 8 75 c4 41 7 116 5 166 l-2 92 76 36 c192 91 347 249 439 449 19 42 35 83 35 91 0 21 -2 21 99 -14 356 -122 748 1 978 308 32 42 71 105 88 140 16 34 30 62 31 62 0 0 23 -27 49 -61z"/>
</g>
</svg>